<svg width="400" height="300" viewBox="0 0 400 300" fill="none" xmlns="http://www.w3.org/2000/svg">
  <defs>
    <linearGradient id="skyGradient" x1="0%" y1="0%" x2="0%" y2="100%">
      <stop offset="0%" style="stop-color:#87CEEB;stop-opacity:1" />
      <stop offset="100%" style="stop-color:#4682B4;stop-opacity:1" />
    </linearGradient>
  </defs>
  <rect width="400" height="300" fill="url(#skyGradient)"/>
  
  <!-- 云朵 -->
  <ellipse cx="80" cy="60" rx="25" ry="15" fill="white" opacity="0.8"/>
  <ellipse cx="95" cy="55" rx="30" ry="18" fill="white" opacity="0.8"/>
  <ellipse cx="110" cy="60" rx="25" ry="15" fill="white" opacity="0.8"/>
  
  <ellipse cx="300" cy="80" rx="20" ry="12" fill="white" opacity="0.6"/>
  <ellipse cx="315" cy="75" rx="25" ry="15" fill="white" opacity="0.6"/>
  
  <!-- 飞机 -->
  <g transform="translate(200,150)">
    <ellipse cx="0" cy="0" rx="40" ry="8" fill="#2563eb"/>
    <ellipse cx="15" cy="-2" rx="15" ry="3" fill="#1d4ed8"/>
    <ellipse cx="-10" cy="0" rx="8" ry="12" fill="#1e40af"/>
    <ellipse cx="-25" cy="0" rx="6" ry="8" fill="#1e40af"/>
  </g>
  
  <!-- 城市轮廓 -->
  <rect x="0" y="220" width="400" height="80" fill="#1f2937"/>
  <rect x="50" y="180" width="20" height="120" fill="#374151"/>
  <rect x="80" y="190" width="15" height="110" fill="#4b5563"/>
  <rect x="120" y="170" width="25" height="130" fill="#374151"/>
  <rect x="160" y="185" width="18" height="115" fill="#4b5563"/>
  <rect x="200" y="160" width="30" height="140" fill="#374151"/>
  <rect x="250" y="175" width="22" height="125" fill="#4b5563"/>
  <rect x="290" y="190" width="20" height="110" fill="#374151"/>
  <rect x="330" y="185" width="25" height="115" fill="#4b5563"/>
  
  <!-- 窗户 -->
  <rect x="55" y="190" width="3" height="3" fill="#fbbf24"/>
  <rect x="60" y="190" width="3" height="3" fill="#fbbf24"/>
  <rect x="55" y="200" width="3" height="3" fill="#fbbf24"/>
  <rect x="60" y="200" width="3" height="3" fill="#fbbf24"/>
  
  <rect x="125" y="180" width="4" height="4" fill="#fbbf24"/>
  <rect x="135" y="180" width="4" height="4" fill="#fbbf24"/>
  <rect x="125" y="190" width="4" height="4" fill="#fbbf24"/>
  <rect x="135" y="190" width="4" height="4" fill="#fbbf24"/>
  
  <text x="200" y="280" text-anchor="middle" fill="white" font-family="Arial, sans-serif" font-size="16" font-weight="bold">北京航班</text>
</svg>