<svg width="400" height="300" viewBox="0 0 400 300" fill="none" xmlns="http://www.w3.org/2000/svg">
  <defs>
    <linearGradient id="tropicalGradient" x1="0%" y1="0%" x2="0%" y2="100%">
      <stop offset="0%" style="stop-color:#06b6d4;stop-opacity:1" />
      <stop offset="100%" style="stop-color:#0891b2;stop-opacity:1" />
    </linearGradient>
  </defs>
  <rect width="400" height="300" fill="url(#tropicalGradient)"/>
  
  <!-- 云朵 -->
  <ellipse cx="70" cy="50" rx="22" ry="14" fill="white" opacity="0.7"/>
  <ellipse cx="85" cy="45" rx="28" ry="17" fill="white" opacity="0.7"/>
  <ellipse cx="100" cy="50" rx="22" ry="14" fill="white" opacity="0.7"/>
  
  <ellipse cx="320" cy="70" rx="18" ry="11" fill="white" opacity="0.5"/>
  <ellipse cx="335" cy="65" rx="23" ry="14" fill="white" opacity="0.5"/>
  
  <!-- 飞机 -->
  <g transform="translate(220,140) rotate(5)">
    <ellipse cx="0" cy="0" rx="42" ry="9" fill="#059669"/>
    <ellipse cx="16" cy="-2" rx="16" ry="3" fill="#047857"/>
    <ellipse cx="-11" cy="0" rx="9" ry="13" fill="#065f46"/>
    <ellipse cx="-26" cy="0" rx="7" ry="9" fill="#065f46"/>
  </g>
  
  <!-- 珠江和城市 -->
  <path d="M0 220 Q100 200 200 210 T400 220 L400 300 L0 300 Z" fill="#0369a1"/>
  
  <!-- 广州塔 -->
  <polygon points="190,120 194,120 200,300 186,300" fill="#dc2626"/>
  <polygon points="188,140 196,140 198,160 190,160" fill="#ef4444"/>
  <polygon points="189,180 195,180 197,200 191,200" fill="#ef4444"/>
  
  <!-- 建筑群 -->
  <rect x="50" y="170" width="22" height="130" fill="#374151"/>
  <rect x="90" y="180" width="18" height="120" fill="#4b5563"/>
  <rect x="130" y="160" width="26" height="140" fill="#374151"/>
  <rect x="220" y="175" width="20" height="125" fill="#4b5563"/>
  <rect x="260" y="165" width="24" height="135" fill="#374151"/>
  <rect x="300" y="185" width="19" height="115" fill="#4b5563"/>
  <rect x="340" y="175" width="23" height="125" fill="#374151"/>
  
  <!-- 建筑灯光 -->
  <rect x="55" y="180" width="2" height="2" fill="#fbbf24"/>
  <rect x="62" y="180" width="2" height="2" fill="#fbbf24"/>
  <rect x="55" y="195" width="2" height="2" fill="#fbbf24"/>
  <rect x="62" y="195" width="2" height="2" fill="#fbbf24"/>
  
  <rect x="135" y="170" width="3" height="3" fill="#fbbf24"/>
  <rect x="145" y="170" width="3" height="3" fill="#fbbf24"/>
  <rect x="135" y="185" width="3" height="3" fill="#fbbf24"/>
  <rect x="145" y="185" width="3" height="3" fill="#fbbf24"/>
  
  <text x="200" y="280" text-anchor="middle" fill="white" font-family="Arial, sans-serif" font-size="16" font-weight="bold">广州航班</text>
</svg>