<svg width="200" height="200" viewBox="0 0 200 200" xmlns="http://www.w3.org/2000/svg">
  <!-- 白色背景 -->
  <rect width="200" height="200" fill="white" stroke="#e5e7eb" stroke-width="2"/>
  
  <!-- 二维码模拟图案 -->
  <!-- 左上角定位点 -->
  <rect x="10" y="10" width="50" height="50" fill="black"/>
  <rect x="20" y="20" width="30" height="30" fill="white"/>
  <rect x="25" y="25" width="20" height="20" fill="black"/>
  
  <!-- 右上角定位点 -->
  <rect x="140" y="10" width="50" height="50" fill="black"/>
  <rect x="150" y="20" width="30" height="30" fill="white"/>
  <rect x="155" y="25" width="20" height="20" fill="black"/>
  
  <!-- 左下角定位点 -->
  <rect x="10" y="140" width="50" height="50" fill="black"/>
  <rect x="20" y="150" width="30" height="30" fill="white"/>
  <rect x="25" y="155" width="20" height="20" fill="black"/>
  
  <!-- 数据区域模拟 -->
  <rect x="70" y="10" width="5" height="5" fill="black"/>
  <rect x="80" y="10" width="5" height="5" fill="black"/>
  <rect x="90" y="10" width="5" height="5" fill="black"/>
  <rect x="100" y="10" width="5" height="5" fill="black"/>
  <rect x="110" y="10" width="5" height="5" fill="black"/>
  <rect x="120" y="10" width="5" height="5" fill="black"/>
  <rect x="130" y="10" width="5" height="5" fill="black"/>
  
  <rect x="10" y="70" width="5" height="5" fill="black"/>
  <rect x="20" y="70" width="5" height="5" fill="black"/>
  <rect x="30" y="70" width="5" height="5" fill="black"/>
  <rect x="40" y="70" width="5" height="5" fill="black"/>
  <rect x="50" y="70" width="5" height="5" fill="black"/>
  
  <!-- 更多数据点 -->
  <rect x="70" y="20" width="5" height="5" fill="black"/>
  <rect x="85" y="20" width="5" height="5" fill="black"/>
  <rect x="95" y="20" width="5" height="5" fill="black"/>
  <rect x="105" y="20" width="5" height="5" fill="black"/>
  <rect x="125" y="20" width="5" height="5" fill="black"/>
  
  <rect x="70" y="30" width="5" height="5" fill="black"/>
  <rect x="80" y="30" width="5" height="5" fill="black"/>
  <rect x="100" y="30" width="5" height="5" fill="black"/>
  <rect x="110" y="30" width="5" height="5" fill="black"/>
  <rect x="130" y="30" width="5" height="5" fill="black"/>
  
  <rect x="75" y="40" width="5" height="5" fill="black"/>
  <rect x="90" y="40" width="5" height="5" fill="black"/>
  <rect x="105" y="40" width="5" height="5" fill="black"/>
  <rect x="120" y="40" width="5" height="5" fill="black"/>
  
  <rect x="70" y="50" width="5" height="5" fill="black"/>
  <rect x="85" y="50" width="5" height="5" fill="black"/>
  <rect x="100" y="50" width="5" height="5" fill="black"/>
  <rect x="115" y="50" width="5" height="5" fill="black"/>
  <rect x="130" y="50" width="5" height="5" fill="black"/>
  
  <!-- 中间区域 -->
  <rect x="70" y="70" width="5" height="5" fill="black"/>
  <rect x="80" y="70" width="5" height="5" fill="black"/>
  <rect x="90" y="70" width="5" height="5" fill="black"/>
  <rect x="100" y="70" width="5" height="5" fill="black"/>
  <rect x="110" y="70" width="5" height="5" fill="black"/>
  <rect x="120" y="70" width="5" height="5" fill="black"/>
  <rect x="130" y="70" width="5" height="5" fill="black"/>
  <rect x="140" y="70" width="5" height="5" fill="black"/>
  <rect x="150" y="70" width="5" height="5" fill="black"/>
  <rect x="160" y="70" width="5" height="5" fill="black"/>
  <rect x="170" y="70" width="5" height="5" fill="black"/>
  <rect x="180" y="70" width="5" height="5" fill="black"/>
  
  <!-- 中心定位点 -->
  <rect x="85" y="85" width="30" height="30" fill="black"/>
  <rect x="90" y="90" width="20" height="20" fill="white"/>
  <rect x="95" y="95" width="10" height="10" fill="black"/>
  
  <!-- 更多数据区域 -->
  <rect x="70" y="120" width="5" height="5" fill="black"/>
  <rect x="80" y="120" width="5" height="5" fill="black"/>
  <rect x="90" y="120" width="5" height="5" fill="black"/>
  <rect x="100" y="120" width="5" height="5" fill="black"/>
  <rect x="110" y="120" width="5" height="5" fill="black"/>
  <rect x="120" y="120" width="5" height="5" fill="black"/>
  <rect x="130" y="120" width="5" height="5" fill="black"/>
  <rect x="140" y="120" width="5" height="5" fill="black"/>
  <rect x="150" y="120" width="5" height="5" fill="black"/>
  <rect x="160" y="120" width="5" height="5" fill="black"/>
  <rect x="170" y="120" width="5" height="5" fill="black"/>
  <rect x="180" y="120" width="5" height="5" fill="black"/>
  
  <rect x="70" y="130" width="5" height="5" fill="black"/>
  <rect x="85" y="130" width="5" height="5" fill="black"/>
  <rect x="95" y="130" width="5" height="5" fill="black"/>
  <rect x="105" y="130" width="5" height="5" fill="black"/>
  <rect x="125" y="130" width="5" height="5" fill="black"/>
  <rect x="135" y="130" width="5" height="5" fill="black"/>
  <rect x="145" y="130" width="5" height="5" fill="black"/>
  <rect x="155" y="130" width="5" height="5" fill="black"/>
  <rect x="165" y="130" width="5" height="5" fill="black"/>
  <rect x="175" y="130" width="5" height="5" fill="black"/>
  <rect x="185" y="130" width="5" height="5" fill="black"/>
  
  <!-- 底部区域 -->
  <rect x="70" y="160" width="5" height="5" fill="black"/>
  <rect x="80" y="160" width="5" height="5" fill="black"/>
  <rect x="90" y="160" width="5" height="5" fill="black"/>
  <rect x="100" y="160" width="5" height="5" fill="black"/>
  <rect x="110" y="160" width="5" height="5" fill="black"/>
  <rect x="120" y="160" width="5" height="5" fill="black"/>
  <rect x="130" y="160" width="5" height="5" fill="black"/>
  <rect x="140" y="160" width="5" height="5" fill="black"/>
  <rect x="150" y="160" width="5" height="5" fill="black"/>
  <rect x="160" y="160" width="5" height="5" fill="black"/>
  <rect x="170" y="160" width="5" height="5" fill="black"/>
  <rect x="180" y="160" width="5" height="5" fill="black"/>
  
  <rect x="75" y="170" width="5" height="5" fill="black"/>
  <rect x="90" y="170" width="5" height="5" fill="black"/>
  <rect x="105" y="170" width="5" height="5" fill="black"/>
  <rect x="120" y="170" width="5" height="5" fill="black"/>
  <rect x="135" y="170" width="5" height="5" fill="black"/>
  <rect x="150" y="170" width="5" height="5" fill="black"/>
  <rect x="165" y="170" width="5" height="5" fill="black"/>
  <rect x="180" y="170" width="5" height="5" fill="black"/>
  
  <rect x="70" y="180" width="5" height="5" fill="black"/>
  <rect x="85" y="180" width="5" height="5" fill="black"/>
  <rect x="100" y="180" width="5" height="5" fill="black"/>
  <rect x="115" y="180" width="5" height="5" fill="black"/>
  <rect x="130" y="180" width="5" height="5" fill="black"/>
  <rect x="145" y="180" width="5" height="5" fill="black"/>
  <rect x="160" y="180" width="5" height="5" fill="black"/>
  <rect x="175" y="180" width="5" height="5" fill="black"/>
  
  <rect x="75" y="190" width="5" height="5" fill="black"/>
  <rect x="90" y="190" width="5" height="5" fill="black"/>
  <rect x="105" y="190" width="5" height="5" fill="black"/>
  <rect x="120" y="190" width="5" height="5" fill="black"/>
  <rect x="135" y="190" width="5" height="5" fill="black"/>
  <rect x="150" y="190" width="5" height="5" fill="black"/>
  <rect x="165" y="190" width="5" height="5" fill="black"/>
  <rect x="180" y="190" width="5" height="5" fill="black"/>
</svg>